/* XPM */
static char *rcp23764876084249680[] = {
/* columns rows colors chars-per-pixel */
"75 75 142 2 ",
"   c #693F2B",
".  c #683E2D",
"X  c #693C2E",
"o  c #683D2E",
"O  c #683D2F",
"+  c #683E2E",
"@  c #683F2F",
"#  c #663B32",
"$  c #663B33",
"%  c #673C30",
"&  c #673C31",
"*  c #663935",
"=  c #663A34",
"-  c #653836",
";  c #653936",
":  c #653837",
">  c #663937",
",  c #673937",
"<  c #673A36",
"1  c #663A37",
"2  c #673A37",
"3  c #673C35",
"4  c #683C31",
"5  c #653838",
"6  c #663838",
"7  c #663938",
"8  c #775706",
"9  c #775806",
"0  c #775807",
"q  c #785A01",
"w  c #795B02",
"e  c #795A03",
"r  c #795C00",
"t  c #795C01",
"y  c #7A5C00",
"u  c #7A5D00",
"i  c #795C02",
"p  c #785904",
"a  c #785905",
"s  c #785B04",
"d  c #7A5A07",
"f  c #765609",
"g  c #765709",
"h  c #74530C",
"j  c #74520E",
"k  c #74530E",
"l  c #75530E",
"z  c #75550C",
"x  c #75540E",
"c  c #775A0C",
"v  c #775A0D",
"b  c #775A0E",
"n  c #775A0F",
"m  c #7A5A08",
"M  c #7A5A09",
"N  c #785A0B",
"B  c #795A0B",
"V  c #7A5A0A",
"C  c #785A0C",
"Z  c #6E471E",
"A  c #6F481D",
"S  c #6E491D",
"D  c #6F4B1C",
"F  c #6D481E",
"G  c #6E491E",
"H  c #714F15",
"J  c #724F14",
"K  c #714D16",
"L  c #704C17",
"P  c #704D17",
"I  c #714D17",
"U  c #704B19",
"Y  c #704B1B",
"T  c #714C18",
"R  c #714D18",
"E  c #765911",
"W  c #775A10",
"Q  c #775A11",
"!  c #765912",
"~  c #765913",
"^  c #765914",
"/  c #765915",
"(  c #76511D",
")  c #77511D",
"_  c #75511E",
"`  c #74511F",
"'  c #75511F",
"]  c #76511E",
"[  c #73561C",
"{  c #79511B",
"}  c #7A511A",
"|  c #7A511B",
" . c #78511C",
".. c #6D4521",
"X. c #6D4720",
"o. c #6D4721",
"O. c #6D4523",
"+. c #6E4722",
"@. c #6B4524",
"#. c #6B4427",
"$. c #6C4424",
"%. c #6C4524",
"&. c #6C4624",
"*. c #694129",
"=. c #6A4129",
"-. c #69402A",
";. c #69402B",
":. c #6A412A",
">. c #6A412B",
",. c #6A422A",
"<. c #6C432F",
"1. c #6C472D",
"2. c #6D472D",
"3. c #6C452F",
"4. c #6C462E",
"5. c #6C472E",
"6. c #6C462F",
"7. c #6F4B29",
"8. c #6D482B",
"9. c #6E492A",
"0. c #6E492B",
"q. c #6E4A2A",
"w. c #6D482C",
"e. c #6D482D",
"r. c #714F24",
"t. c #704C27",
"y. c #724529",
"u. c #71442F",
"i. c #704B28",
"p. c #704B29",
"a. c #704D29",
"s. c #735120",
"d. c #725121",
"f. c #715122",
"g. c #715123",
"h. c #745120",
"j. c #705124",
"k. c #705125",
"l. c #6A4331",
"z. c #694133",
"x. c #6C4430",
"c. c #6C4530",
/* pixels */
"5 5 5 5 5 5 5 5 5 5 5 5 5 5 5 5 5 5 5 5 5 5 5 5 5 5 5 5 5 5 5 5 5 5 5 5 5 5 5 5 5 5 5 5 5 5 5 5 5 5 5 5 5 5 5 5 5 5 5 5 5 5 5 5 5 5 5 5 5 5 5 5 5 5 5 ",
"5 5 5 5 5 5 5 5 5 5 5 5 5 5 5 5 5 5 5 5 5 5 5 5 5 5 5 5 5 5 5 5 5 5 5 5 5 5 5 5 5 5 5 5 5 5 5 5 5 5 5 5 5 5 5 5 5 5 5 5 5 5 5 5 5 5 5 5 5 5 5 5 5 5 5 ",
"5 5 5 5 5 5 5 5 5 5 5 5 5 5 5 5 5 5 5 5 5 5 5 5 5 5 5 5 5 5 5 5 5 5 5 5 5 5 5 5 5 5 5 5 5 5 5 5 5 5 5 5 5 5 5 5 5 5 5 5 5 5 5 5 5 5 5 5 5 5 5 5 5 5 5 ",
"5 5 5 5 5 5 5 5 5 5 5 5 5 5 5 5 5 5 5 5 5 5 5 5 5 5 5 5 5 5 5 5 5 5 5 5 5 5 5 5 5 5 5 5 5 5 5 5 5 5 5 5 5 5 5 5 5 5 5 5 5 5 5 5 5 5 5 5 5 5 5 5 5 5 5 ",
"5 5 5 5 5 5 5 5 5 5 5 5 5 5 5 5 5 5 5 5 5 5 5 5 5 5 5 5 5 5 5 5 5 5 5 5 5 5 5 5 5 5 5 5 5 5 5 5 5 5 5 5 5 5 5 5 5 5 5 5 5 5 5 5 5 5 5 5 5 5 5 5 5 5 5 ",
"5 5 5 5 5 5 5 5 5 5 5 5 5 5 5 5 5 5 5 5 5 5 5 5 5 5 5 5 5 5 5 5 5 5 5 5 5 5 5 5 5 5 5 5 5 5 5 5 5 5 5 5 5 5 5 5 5 5 5 5 5 5 5 5 5 5 5 5 5 5 5 5 5 5 5 ",
"5 5 5 5 5 5 5 5 5 5 5 5 5 5 5 5 5 5 5 5 5 5 5 5 5 5 5 5 5 5 5 5 5 5 5 5 5 5 5 5 5 5 5 5 5 5 5 5 5 5 5 5 5 5 5 5 5 5 5 5 5 5 5 5 5 5 5 5 5 5 5 5 5 5 5 ",
"5 5 5 5 5 5 5 5 5 > 5 5 5 5 5 5 5 5 5 5 5 5 5 5 5 5 5 5 5 5 5 5 5 5 5 5 5 5 5 5 5 5 5 5 5 5 5 5 5 5 5 5 5 5 5 5 5 5 5 5 5 5 5 5 5 5 5 5 5 5 5 5 5 5 5 ",
"5 5 5 5 5 5 5 > z.1.1.1.1.1.1.1.1.1.1.1.1.1.1.1.1.1.1.1.1.1.1.1.c.c.c.c.c.c.c.c.c.c.c.c.c.c.c.c.c.c.c.c.c.c.c.c.c.c.c.c.c.c.c.c.c.z.3 5 5 5 5 5 5 5 5 ",
"5 5 5 5 5 5 5 > a.E E E E E E E E E E E E E E E E E E ^ ^ ^ ^ ^ ^ ^ ^ ^ ^ ^ ^ ^ ^ ^ ^ ^ ^ ^ ^ ^ ^ ^ ^ ^ ^ ^ ^ ^ ^ ^ ^ ^ ^ ^ ^ ^ ^ [ <.5 5 5 5 5 5 5 5 ",
"5 5 5 5 5 5 5 > k.u u u u u u u u u u u u u u u u u u u u u u u u u u u u u u u u u u u u u u u u u u u u u u u u u u u u u u u u E 1.5 5 5 5 5 5 5 5 ",
"5 5 5 5 5 5 5 > k.u u u u u u u u u u u u u u u u u u u u u u u u u u u u u u u u u u u u u u u u u u u u u u u u u u u u u u u u E 1.5 5 5 5 5 5 5 5 ",
"5 5 5 5 5 5 5 > k.u u u u u u u u u u u u u u u u u u u u u u u u u u u u u u u u u u u u u u u u u u u u u u u u u u u u u u u u E 1.5 5 5 5 5 5 5 5 ",
"5 5 5 5 5 5 5 > k.u u u u u u u u u u u u u u u u u u u u u u u u u u u u u u u u u u u u u u u u u u u u u u u u u u u u u u u u E 1.5 5 5 5 5 5 5 5 ",
"5 5 5 5 5 5 5 > k.u u u u u u u u u u u u u u u u u u u u u u u u u u u u u u u u u u u u u u u u u u u u u u u u u u u u u u u u E 1.5 5 5 5 5 5 5 5 ",
"5 5 5 5 5 5 5 > k.u u u u u u u u u u u u u u u u u u u u u u u u u u u u u u u u u u u u u u u u u u u u u u u u u u u u u u u u E 1.5 5 5 5 5 5 5 5 ",
"5 5 5 5 5 5 5 > k.u u u u u u u u u u u u u u u u u u u u u u u u u u u u u u u u u u u u u u u u u u u u u u u u u u u u u u u u E 1.5 5 5 5 5 5 5 5 ",
"5 5 5 5 5 5 5 > k.u u u u u u u u u u u u u u u u u u u u u u u u u u u u u u u u u u u u u u u u u u u u u u u u u u u u u u u u E 1.5 5 5 5 5 5 5 5 ",
"5 5 5 5 5 5 5 > k.u u u u u u u u u u u u u u u u u u u u u u u u u u u u u u u u u u u u u u u u u u u u u u u u u u u u u u u u E 1.5 5 5 5 5 5 5 5 ",
"5 5 5 5 5 5 5 > k.u u u u u u u u u u u u u u u u u u u u u u u u u u u u u u u u u u u u u u u u u u u u u u u u u u u u u u u u E 1.5 5 5 5 5 5 5 5 ",
"5 5 5 5 5 5 5 > k.u u u u u u u u u u u u u u u u u u u u u u u u u u u u u u u u u u u u u u u u u u u u u u u u u u u u u u u u E 1.5 5 5 5 5 5 5 5 ",
"5 5 5 5 5 5 5 > k.u u u u u u u u u u u u u u u u u u u u u u u u u u u u u u u u u u u u u u u u u u u u u u u u u u u u u u u u E 1.5 5 5 5 5 5 5 5 ",
"5 5 5 5 5 5 5 > k.u u u u u u u u u u u u u u u u u u u u u u u u u u u u u u u u u u u u u u u u u u u u u u u u u u u u u u u u E 1.5 5 5 5 5 5 5 5 ",
"5 5 5 5 5 5 5 > k.u u u u u u u u u u u u u u u u u u u u u u u u u u u u u u u u u u u u u u u u u u u u u u u u u u u u u u u u E 1.5 5 5 5 5 5 5 5 ",
"5 5 5 5 5 5 5 > k.u u u u u u u u u u u u u u u u u u u u u u u u u u u u u u u u u u u u u u u u u u u u u u u u u u u u u u u u E 1.5 5 5 5 5 5 5 5 ",
"5 5 5 5 5 5 5 > k.u u u u u u u u u u u u u u u u u u u u u u u u u u u u u u u u u u u u u u u u u u u u u u u u u u u u u u u u c 1.5 5 5 5 5 5 5 5 ",
"5 5 5 5 5 5 5 > k.u u u u u u u u u u u u u u u u u u u u u u u u u u u u u u u u u u u u u u u u u u u u u u u u u u u u u u u u E 1.5 5 5 5 5 5 5 5 ",
"5 5 5 5 5 5 5 > k.u u u u u u u u u u u u u u u u u u u u u u u u u u u u u u u u u u u u u u u u u u u u u u u u u u u u u u u u c 1.5 5 5 5 5 5 5 5 ",
"5 5 5 5 5 5 5 > k.u u u u u u u u u u u u u u u u u u u u u u u u u u u u u u u u u u u u u u u u u u u u u u u u u u u u u u u u c w.5 5 5 5 5 5 5 5 ",
"5 5 5 5 5 5 5 > k.u u u u u u u u u u u u u u u u u u u u u u u u u u u u u u u u u u u u u u u u u u u u u u u u u u u u u u u u c w.5 5 5 5 5 5 5 5 ",
"5 5 5 5 5 5 5 > g.u u u u u u u u u u u u u u u u u u u u u u u u u u u u u u u u u u u u u u u u u u u u u u u u u u u u u u u u c w.5 5 5 5 5 5 5 5 ",
"5 5 5 5 5 5 5 > g.u u u u u u u u u u u u u u u u u u u u u u u u u u u u u u u u u u u u u u u u u u u u u u u u u u u u u u u u c w.5 5 5 5 5 5 5 5 ",
"5 5 5 5 5 5 5 > g.u u u u u u u u u u u u u u u u u u u u u u u u u u u u u u u u u u u u u u u u u u u u u u u u u u u u u u u u c w.5 5 5 5 5 5 5 5 ",
"5 5 5 5 5 5 5 > g.u u u u u u u u u u u u u u u u u u u u u u u u u u u u u u u u u u u u u u u u u u u u u u u u u u u u u u u u c w.5 5 5 5 5 5 5 5 ",
"5 5 5 5 5 5 5 > g.u u u u u u u u u u u u u u u u u u u u u u u u u u u u u u u u u u u u u u u u u u u u u u u u u u u u u u u u c w.5 5 5 5 5 5 5 5 ",
"5 5 5 5 5 5 5 > g.u u u u u u u u u u u u u u u u u u u u u u u u u u u u u u u u u u u u u u u u u u u u u u u u u u u u u u u u c w.5 5 5 5 5 5 5 5 ",
"5 5 5 5 5 5 5 > g.u u u u u u u u u u u u u u u u u u u u u u u u u u u u u u u u u u u u u u u u u u u u u u u u u u u u u u u u c w.5 5 5 5 5 5 5 5 ",
"5 5 5 5 5 5 5 > g.u u u u u u u u u u u u u u u u u u u u u u u u u u u u u u u u u u u u u u u u u u u u u u u u u u u u u u u u c w.5 5 5 5 5 5 5 5 ",
"5 5 5 5 5 5 5 > g.u u u u u u u u u u u u u u u u u u u u u u u u u u u u u u u u u u u u u u u u u u u u u u u u u u u u u u u u c w.5 5 5 5 5 5 5 5 ",
"5 5 5 5 5 5 5 > g.u u u u u u u u u u u u u u u u u u u u u u u u u u u u u u u u u u u u u u u u u u u u u u u u u u u u u u u u c 7.5 5 5 5 5 5 5 5 ",
"5 5 5 5 5 5 5 > g.u u u u u u u u u u u u u u u u u u u u u u u u u u u u u u u u u u u u u u u u u u u u u u u u u u u u u u u u c 7.5 5 5 5 5 5 5 5 ",
"5 5 5 5 5 5 5 > g.u u u u u u u u u u u u u u u u u u u u u u u u u u u u u u u u u u u u u u u u u u u u u u u u u u u u u u u u c 7.> 5 5 5 5 5 5 5 ",
"5 5 5 5 5 5 5 > g.u u u u u u u u u u u u u u u u u u u u u u u u u u u u u u u u u u u u u u u u u u u u u u u u u u u u u u u u c 7.> 5 5 5 5 5 5 5 ",
"5 5 5 5 5 5 5 > g.u u u u u u u u u u u u u u u u u u u u u u u u u u u u u u u u u u u u u u u u u u u u u u u u u u u u u u u u c 7.> 5 5 5 5 5 5 5 ",
"5 5 5 5 5 5 5 > g.u u u u u u u u u u u u u u u u u u u u u u u u u u u u u u u u u p @ u u u u p @ u u u u u u u u u u u u u u u c 7.> 5 5 5 5 5 5 5 ",
"5 5 5 5 5 5 5 > g.u u u u u u u u u u u p @ u u u u u u u u u u u u u p @ u u u u u p @ u u u u p @ u u u u u u u u u u u u u u u c 7.> 5 5 5 5 5 5 5 ",
"5 5 5 5 5 5 5 > g.u u u u u u u u u u u p @ u u u u u u u u u u u u u p @ u u u u u p @ u u u u p @ u u u u u u u u u u u u u u u c 7.> 5 5 5 5 5 5 5 ",
"5 5 5 5 5 5 5 > g.u u u u u u u u u u u *.5 5 #.u R & > &.u p *.> 5 R *.5 5 #.u u u p @ &.> *.p p @ u u Y # > X.u u R & > & u u u c 7.> 5 5 5 5 5 5 5 ",
"5 5 5 5 5 5 5 > g.u u u u u u u u u u u p @ u u x   0 q Z R K #.u u u p @ u u u u u p > h q D X.p @ u h @ 8 p *.K x @ f u u u u u c 7.> 5 5 5 5 5 5 5 ",
"5 5 5 5 5 5 5 > g.u u u u u u u u u u u p @ u u K 5 5 5 5 X.q X.*.&.f p @ u u u u u p @ u u f *.p @ u K D u u K D K D u u u u u u c 7.> 5 5 5 5 5 5 5 ",
"5 5 5 5 5 5 5 > h.u u u u u u u u u u u q & q u x *.0 u u u u u u K &.q & q u u u u p > h q D X.p @ u x @ 0 p *.K x @ f u u u u u c 7.> 5 5 5 5 5 5 5 ",
"5 5 5 5 5 5 5 > ` u u u u u u u u u u u u #.> #.u K & > 5 K Y 5 > @ h u #.> #.u u u p @ X.> *.p p @ u u D # > X.u u K 4 > & u u u c 7.> 5 5 5 5 5 5 5 ",
"5 5 5 5 5 5 5 > ` u u u u u u u u u u u u u u u u u u u u u u u u u u u u u u u u u u u u u u u u u u u u u u u u u u u u u u u u C 7.> 5 5 5 5 5 5 5 ",
"5 5 5 5 5 5 5 > ` u u u u u u u u u u u u u u u u u u u u u u u u u u u u u u u u u u u u u u u u u u u u u u u u u u u u u u u u M 7.> 5 5 5 5 5 5 5 ",
"5 5 5 5 5 5 5 > ` u u u u u u u u u u u u u u u u u u u u u u u u u u u u u u u u u u u u u u u u u u u u u u u u u u u u u u u u M 7.> 5 5 5 5 5 5 5 ",
"5 5 5 5 5 5 5 > ` u u u u u u u u u u u u u u u u u u u u u u u u u u u u u u u u u u u u u u u u u u u u u u u u u u u u u u u u M 7.> 5 5 5 5 5 5 5 ",
"5 5 5 5 5 5 5 > ` u u u u u u u u u u u u u u u u u u u u u u u u u u u u u u u u u u u u u u u u u u u u u u u u u u u u u u u u M i.> 5 5 5 5 5 5 5 ",
"5 5 5 5 5 5 5 > ` u u u u u u u u u u u u u u u u u u u u u u u u u u u u u u u u u u u u u u u u u u u u u u u u u u u u u u u u M i.> 5 5 5 5 5 5 5 ",
"5 5 5 5 5 5 5 > ` u u u u u u u u u u u u u u u u u u u u u u u u u u u u u u u u u u u u u u u u u u u u u u u u u u u u u u u u M i.> 5 5 5 5 5 5 5 ",
"5 5 5 5 5 5 5 > ` u u u u u u u u u u u u u u u u u u u u u u u u u u u u u u u u u u u u u u u u u u u u u u u u u u u u u u u u M i.> 5 5 5 5 5 5 5 ",
"5 5 5 5 5 5 5 > ` u u u u u u u u u u u u u u u u u u u u u u u u u u u u u u u u u u u u u u u u u u u u u u u u u u u u u u u u M i.> 5 5 5 5 5 5 5 ",
"5 5 5 5 5 5 5 > ` u u u u u u u u u u u u u u u u u u u u u u u u u u u u u u u u u u u u u u u u u u u u u u u u u u u u u u u u M i.> 5 5 5 5 5 5 5 ",
"5 5 5 5 5 5 5 >  .u u u u u u u u u u u u u u u u u u u u u u u u u u u u u u u u u u u u u u u u u u u u u u u u u u u u u u u u M i.> 5 5 5 5 5 5 5 ",
"5 5 5 5 5 5 5 >  .u u u u u u u u u u u u u u u u u u u u u u u u u u u u u u u u u u u u u u u u u u u u u u u u u u u u u u u u M i.> 5 5 5 5 5 5 5 ",
"5 5 5 5 5 5 5 > } u u u u u u u u u u u u u u u u u u u u u u u u u u u u u u u u u u u u u u u u u u u u u u u u u u u u u u u u M i.> 5 5 5 5 5 5 5 ",
"5 5 5 5 5 5 5 > } u u u u u u u u u u u u u u u u u u u u u u u u u u u u u u u u u u u u u u u u u u u u u u u u u u u u u u u u M r.> 5 5 5 5 5 5 5 ",
"5 5 5 5 5 5 5 > } u u u u u u u u u u u u u u u u u u u u u u u u u u u u u u u u u u u u u u u u u u u u u u u u u u u u u u u u p r.> 5 5 5 5 5 5 5 ",
"5 5 5 5 5 5 5 > y.g.g.g.g.g.g.g.g.g.g.g.g.g.g.k.k.k.k.k.k.k.k.k.k.k.k.k.k.k.k.k.k.k.k.k.k.k.k.k.k.k.k.k.k.k.k.k.k.k.k.g.g.g.g.g.g.r.u.> 5 5 5 5 5 5 5 ",
"5 5 5 5 5 5 5 > > > > > > > > > > > > > > > > > > > > > > > > > > > > > > > > > > > > > > > > > > > > > > > > > > > > > > > > > > > > > 5 5 5 5 5 5 5 ",
"5 5 5 5 5 5 5 5 5 5 5 5 5 5 5 5 5 5 5 5 5 5 5 5 5 5 5 5 5 5 5 5 5 5 5 5 5 5 5 5 5 5 5 5 5 5 5 5 5 5 5 5 5 5 5 5 5 5 5 5 5 5 5 5 5 5 5 5 5 5 5 5 5 5 5 ",
"5 5 5 5 5 5 5 5 5 5 5 5 5 5 5 5 5 5 5 5 5 5 5 5 5 5 5 5 5 5 5 5 5 5 5 5 5 5 5 5 5 5 5 5 5 5 5 5 5 5 5 5 5 5 5 5 5 5 5 5 5 5 5 5 5 5 5 5 5 5 5 5 5 5 5 ",
"5 5 5 5 5 5 5 5 5 5 5 5 5 5 5 5 5 5 5 5 5 5 5 5 5 5 5 5 5 5 5 5 5 5 5 5 5 5 5 5 5 5 5 5 5 5 5 5 5 5 5 5 5 5 5 5 5 5 5 5 5 5 5 5 5 5 5 5 5 5 5 5 5 5 5 ",
"5 5 5 5 5 5 5 5 5 5 5 5 5 5 5 5 5 5 5 5 5 5 5 5 5 5 5 5 5 5 5 5 5 5 5 5 5 5 5 5 5 5 5 5 5 5 5 5 5 5 5 5 5 5 5 5 5 5 5 5 5 5 5 5 5 5 5 5 5 5 5 5 5 5 5 ",
"5 5 5 5 5 5 5 5 5 5 5 5 5 5 5 5 5 5 5 5 5 5 5 5 5 5 5 5 5 5 5 5 5 5 5 5 5 5 5 5 5 5 5 5 5 5 5 5 5 5 5 5 5 5 5 5 5 5 5 5 5 5 5 5 5 5 5 5 5 5 5 5 5 5 5 ",
"5 5 5 5 5 5 5 5 5 5 5 5 5 5 5 5 5 5 5 5 5 5 5 5 5 5 5 5 5 5 5 5 5 5 5 5 5 5 5 5 5 5 5 5 5 5 5 5 5 5 5 5 5 5 5 5 5 5 5 5 5 5 5 5 5 5 5 5 5 5 5 5 5 5 5 "
};
