/* XPM */
static char *rcp59407056073255392[] = {
/* columns rows colors chars-per-pixel */
"30 30 66 1 ",
"  c #201B1B",
". c #201C1B",
"X c #201C1C",
"o c #211C1C",
"O c #221D1D",
"+ c #242020",
"@ c #252121",
"# c #262221",
"$ c #262222",
"% c #282424",
"& c #2C2828",
"* c #2D2A29",
"= c #312E2E",
"- c #322F2F",
"; c #343232",
": c #383535",
"> c #3B3939",
", c #3C3A3A",
"< c #403E3E",
"1 c #424040",
"2 c #434141",
"3 c #4B4949",
"4 c #555454",
"5 c #575656",
"6 c #595858",
"7 c #5D5B5B",
"8 c #5E5C5C",
"9 c #5F5D5D",
"0 c #605F5F",
"q c #626161",
"w c #686767",
"e c #696868",
"r c #6A6969",
"t c #6C6B6B",
"y c #737272",
"u c #797878",
"i c #7E7D7D",
"p c #807F7F",
"a c #0FA503",
"s c #858484",
"d c #888787",
"f c #9A9999",
"g c #9D9D9D",
"h c #84BC83",
"j c gray63",
"k c #ACABAB",
"l c #ADACAC",
"z c #B8B7B7",
"x c #B9B9B9",
"c c #BDBCBC",
"v c gray75",
"b c #C1C1C1",
"n c gray77",
"m c #C5C4C4",
"M c gray80",
"N c #D0D0D0",
"B c #D2D2D2",
"V c gray83",
"C c #D3DED3",
"Z c #D8D8D8",
"A c gray86",
"S c gainsboro",
"D c #E1E1E1",
"F c gray89",
"G c #E2E5E2",
"H c #E7E7E7",
/* pixels */
"aaaaaaaaaaaaaaNcNaaaaaaaaaaaaa",
"aaaaaaaaaaaaV9#  wFaaaaaaaaaaa",
"aaaaaaaaaaaCr     waaaaaaaaaaa",
"aaaaaaaaaaaV       maaaaaaaaaa",
"aaaaaaaaaaac       paaaaaaaaaa",
"aaaaaaaaaaaf       ,Faaaaaaaaa",
"aaaaaaaaaaa0        gaaaaaaaaa",
"aaaaaaaaaaZ&        1Faaaaaaaa",
"aaaaaaaaaay     O    kaaaaaaaa",
"aaaaaaaaal#     #    qaaaaaaaa",
"aaaaaaaaN:           &Faaaaaaa",
"aaaaaaaa9        O    gaaaaaaa",
"aaaaaaax              3Gaaaaaa",
"aaaaaaa9               baaaaaa",
"aaaaaaz#               daaaaaa",
"aaaaaF,                7aaaaaa",
"aaaaai                 >aaaaaa",
"aaaal%                  haaaaa",
"aaaM-                   Zaaaaa",
"aaay                    jaaaaa",
"aaa-                    <Zaaaa",
"aaxO                     saaaa",
"aar                      #Vaaa",
"aC;                       4Saa",
"am                         tHa",
"au      O             .     6F",
"m%                           4",
"1                             ",
"                              ",
"                              "
};
