/* XPM */
static char *c6491050ba744c09811f2d52d6498b0dc0Stj2OFXahAGbh2[] = {
/* columns rows colors chars-per-pixel */
"64 64 9 1 ",
"  c #B1624D",
". c #9B5643",
"X c #A2867D",
"o c #8B6E67",
"O c #C66851",
"+ c #8F503F",
"@ c #7C4536",
"# c #A9948D",
"$ c #733F31",
/* pixels */
"             .Xo OOOOOOOOOOO  OO             .XX OOOOOOOOO  OO O",
"..  .........+Xo ......  .     ........  .....XX.. .    ........",
".............+XX..............................XX................",
"............++XX.............................+XX................",
"..........++++XX+.+.........................+.XX+...............",
"........+..+++XX@+.+.....................+++++XX+..+............",
".........++++@XX@...............++........++++XX@...+...........",
"........+++++@#X++..+.........+++......++++++@XX@+..++..........",
".+...++..+++.+XX@++..+++....+++..+.+.....+++++XX@+.++++...++....",
"+..+++.+++..+@#X@+.++++....+++++..++++..+.+++@XX@++++....+++++.+",
"....+++.+++++@#X$++++..+++...++++++.+..+.++++@XX$++.++.....+.+++",
"++.....+++++@$#X$@++++..++++..++++++..++++++@$XX$@++..+.++..++++",
"+++++@@@@@@@$$#X$$@@@++++++++++++++++++@@@@$$$#X$@++++++++++++++",
"@@@@@@@$$@$$$$#X$$$$$$$$@@@@++@@@+@@$$$$$$$$$$#X$$@+++++@@++@@@@",
"ooooooooXXXX###XXXXooXooooooooooooooXooXXXX####XXXXXoooooooooooo",
"ooooXXXXXXXXXXXXXXXXXXXXooooooooooXXXXXXXXXXXXXXXXXXXXXoXXoooooo",
" OOOOO OOO O            ..   .oo OOOOO  OO        ..       ..+Xo",
"   ...........................oo...    .....................++Xo",
" ............................+Xo...........................++.Xo",
"..............................Xo........................++++.+XX",
".............................+XX+...+.++...+.+........+++++++@XX",
".............++.............++XX@+...++...+++.......++++.++++@XX",
"+..........+++.........++..++@XX@+++..+++..+....++...++++..++@XX",
"+...........+..+........+++.+@#X$++..+++++....+++++...++..+++@XX",
"@...++.......++.......++..+++@#X$++++++.....+++.+.+++...+++++$XX",
"@..+..++........+...+++++..+++XX$@++++++...+++++.+.+.+.++++++$XX",
"@+...++++++....++.+...++++++++#X$$++++++++..+..+..++++++++++@$#X",
"@+.....+++....+.++...++++++++@#X$$@+++++++++..+++++++++++++@@$XX",
"@@++++++....+@@++++++++@@@@@@$#X$$$@@++++++++++++++++++@@@@@$$#X",
"@@@++++++.++@@++@@@@@@@@@@@$$$#X$$$$$$@@$$@@@@+@++++@@@@@@$$$$#X",
"XXXoooooooooooooooooXooXXXXX###XXXXXXXXooXooooooooooooooXXXX###X",
"XXXXXXXooooooooooooXXXXXXXXXXXXXXXXXXXXXXXXXXXoooooooXXXXXXXXXXX",
"            ..XX OOOOOOOOOOO          .     ..XX OOOOO OO O     ",
"....  ........XX .........    ...............+XX....    ........",
"..............XX...........................++.XX................",
".............+XX..........................++++XX................",
"...........++.XX.....++.....................++XX+...............",
"..........++++XX....+.++...............++....+XX++.+............",
".+.+.......+++XX+...............+.+.....+++.+@XX+++...........+.",
"+++.........++XX+............+++++.+..++++.++@XX++.++........++.",
"+........+++.+XX++...+.....++++..++.+++..+++++#X@++..+.+......++",
".+....+.+++.++XX+++..+++....++++....++..+.++++XX@+..+++..++....+",
"....++++..++++XX@+..+++..++..+.+++....+++++++@#X@++++.+.++......",
"..++.++..++++@XX@+++++..++....++++++...++++++@#X@+++++.++++++...",
"++++++++++++@$#X@@++++++.+++++++++++++++++++@$#X@@++++++++++++++",
"@@@@@@@@@@@$$$#X@@@@@@++++++@@++@@@@@@@@@@@@$$#X@@@@+@@+@+++++++",
"ooooXooXXXXX###XXXXXooooooooooooooooooooXoXX###XXXXooooooooooooo",
"XXXXXXXXXXXXXXXXXXXXXXXXXXoooooooooooXXXXXXXXXXXXXXXXXXoooooooXX",
".   OOO O       .            .oo OOOOOOO  OO      ..  . ......XX",
"...  .......................++Xo..    ........................XX",
"+.........................+..+Xo..............................XX",
"+.........+................+++XX.............................+XX",
".......++..+..................XX.......................++....+XX",
"........++.......+..........++XX.....+...............++.++....XX",
"+.................++....+.++++XX..+++......+.......+++......+.XX",
"+................++..+...+++++XX+..+++....++.+......+.+.....++XX",
"@.....++......+......++++..++@XX+++..+++...++...+++......+...+#X",
"@+..+++..+...+++++..+.+++++.+@XX++..+++++.....++++.....+.++..+#X",
"$++++..++..+...++..+++..++.++@#X@+++.++....++..++..+++..++..+@#X",
"$@++++..++++++..++++...++++++@#X@+++++.++.++.+++.+..++++...++$#X",
"$@@@++++++++++++++++++++++++@$#X$@++++++++++++++++++++++++++@$#X",
"$$@@@@@@@@@@@@@@@@@@@@@@@@@@$$#X$$@@@@@@++@@@@@@@@@@@@@@@@@@$$#X",
"XXXXoooooooooooooooooooooooX###XXXXXoooooooooooooooooooX#######X",
"XXXXXXXXXXoooooooooXXXoooXXXXXXXXXXXXXXoXXooooooooooooXXXXXXXXXX"
};
