/* XPM */
static char *bf815ad15ca947b9f9be86a08fd08242MMScjpSHW0oSO38C[] = {
/* columns rows colors chars-per-pixel */
"64 64 13 1 ",
"  c #797979",
". c #646464",
"X c #515151",
"o c #3D3D43",
"O c #2F2F37",
"+ c #1855BD",
"@ c #20598B",
"# c #1044AC",
"$ c #16448D",
"% c #1034BD",
"& c #446FDC",
"* c #6995F4",
"= c #10349C",
/* pixels */
" ......XXXXXXXXXXXXXXXXXXXoooOooX....XXX....XXXXXXXoooXXXXXXXXX.",
" .......XXXXXXXXoooXXXXXoooooOoo....XXX......XXXXXXXoOooXXXXX...",
"......XXooXXXXooooXXXooOOOOoooooXX........XXXXXXoooOOoooooXXXX..",
"...XXXXoooooXXXooooooooooOOOOOOoX.......XXXXXXXXXoOOOOOooXXXXXXX",
"XXXXXoooooooooooooOOoooooooOOOoooXXX..........XXXXooooXXXXXXXXXX",
"XXXooooooooooooOOOOoooooooOOoooooXX.........XXXXoooooXXXXXXXXXoo",
"OooooooooooooOOOOOOOOoooooooooooooXX.......XXXoooOOoOOoXXXXooooO",
"oooooooooooOOOOOOOOOOOOoooooooooooooX...XXXXXXXoOOOOOooooXXXooOO",
"oX...ooooOOO++@@+#$$OOoooOooooooooOOOOOOOOoOOOooooOOOOOOOOOOOOoo",
"ooXXXX.oOO+@@@@++++##$XoooOOooOOOOOOOOOoooooOOOOoOOOO%%%OOOOoooo",
"oooX....++@@@++&&&&++#$XooooOOOOOOOOooXXXXXXXoooOO%%++$$$OooOOoo",
"oXXXX... ++@@@++&&&&+&#$XooooOOOoooXXXXXXXXXXXXX%+++$$++$$ OOooo",
"XXXXXXX.     @@@++&&&+##XoooooX+$$$+& ..      %++++++$$$$ .XXXXo",
"ooXXXXXX ..XX....@@++&+#XOOOO+$$$++&&& ...     %%%+$$$$  ...Xooo",
"ooooXXXX .XXXooXX. ##+#.OOO +$$$++&&+ .....   .        ...XXXXoo",
"ooOoooXX.XXXXXXXXoo ## oooo.  ++$$+  .......  .....XXXXXX..Xoooo",
"OOoooooXXXXXoooOOOOO  ooooooX.     ......... ....XXXXXXXXXXooooo",
"oOOOoXXXXXXXXoooOOOOooooOooooo.............. ...XXXXXX..XXXXXXoo",
"OOOOOOooooooooOOOoooooOOoooooXXXX....XX..... .....XXXXXXXXXXoooO",
"OOOOOOOOooooOOoooooooooOOOooXXX........XXX.. ..........XXXoOOOOO",
"      .....XX....XXoooo+##+ooXXX........XXX. .%%@....XXXX.....  ",
"    .....XXX....XXXXoo+&&+##oXXXXX....XXXXXX%%%%%@....XXXXXX... ",
"  ....XXXXXXXX...Xoo+&&&+++##ooXXXXXXXXXXX@%%@&&@&..XXXXXXXXXX..",
" ......XXXXXXXXoooo+&&&&&&&++#$oXXXXXXooo@%@&&&&&@.XXXooooXXX...",
" ..........Xooo%%+&&&&***&&&&+#$$XXXXoooo &&***&&&.oOOOOoXXXXXX.",
" .........Xooo%+&&&&*&&***&&+&+##$XXXXXooo &&***& .OOOOOOOoXXXXX",
"........XXXXXX..%++&&***&&++###$  oXXXXXXoo  &*& .OOOoooooooooXX",
".....XXXooXXoooo..+++&&&+##$$$   XXXXXXXooooo   .OOOOOooooooXXXX",
"..XXXXXX###+oooooo.             ........XXXXXoooOOOOooooooXXXXXX",
".XXXXX+#####+oOOOoooOOOoXX..   ....XXXXXXXXXXXoOOOoooXXXXXXXXXXX",
"XXXXX##++&&+&+oOOOoooooo....  ....XXXXXXXXooooooooooooXXXXXooooX",
"XXXX#++&&&&&*&XoooOOOoooX...  ......XXXXXoXXooooooooooooXXXXoooo",
"XXXX+&++&***&&XooooOOOooXX.. .........XX##$$...XXooOOOooooooooXX",
"XXX.&&&****&&.XXXooooooXXXX. .....XXXX#####$$$..XXooOOOOoooOOooX",
"XXX. &&&*&&+ XXoooooooXXXXX..##.XXXXX##+#$$$$$$XXXooooooOOooXXXX",
"XXXX. +&&+  .XXXoooXXXXXXXXX####X...#++++&&&#$$$.XoooooooooooXXX",
"oooXX.    .XXXXXXXXX...XXXXX##++##+++#+&&&&+++#$.oooooOOOOOOOooo",
"oX..    XXoooXXX......XXXXXX###++&&+++&+&&&&&++#.oooOO#OOOOOOOOO",
"ooX....oooooooXXX....XXXXXX.%#+&&&&&&&&&&&&&&&&#.ooOO#+#OOOooXoo",
"XX.......oooooooXXXXXXXXXXo. %#+&&+&&&&&&***&&+.XXooO+&+oOoXXXXX",
"...XX...XXXXXXXXoo###XoooooO. %%++&&&&&*&&*** ...XXo#+&&@OX..   ",
"..XXXX......XXXX###++#XXooOoo. %%#+&&+&&**** .....Xo&+&&&oXX....",
"....XXXX...XXXX###++##oXXXoooo. %%%#+++&&&  ...XXXXX+&&&&@o.....",
"......XXXXXXXX$++&&&+$XXXXXXooo.. %%%##+  ...XXXXXXX&&&*&&o.....",
".XXXXXXXXXX$$+&&&&&++=    .   ......    ......XXXXXX+&**&&@o....",
"..XXXXXXX$++&&+&&++==   ....................XXXXXXXX+&**&&&@....",
".....XXXXX$$+&&+$=== .....................XXXXXX...X%&&**&@@....",
".......XooOO$$====  ..............XXXXX....XXX....XX%+&**&@&....",
"....XXXXXXoOO      .............XXXX$$$$+....XX.....%+&**&&@.XXX",
"..XXXXXXXoooOOOOoX ............XXX$$$$++$$$+.....XXX%%&&**& XX..",
"XXXXXXXXoooOOOoooo.XX.===+.......$$$++++&&+++%....XX %+&&*@.XXXX",
"XXXXXXoooooooOOoXXXX==+++==.....$$+$$+&&&**&++%%...X. %+&& ...XX",
"OOooOOOOOOoooooooXX==+&&+&+=...X$+&+&&****&&&&&+%.XXX.    XXXoOO",
"ooooooOOOOOOOOoooo=++&+&&&&+.XXXX++&&***&&+&&&+++%XXXXXXXXooOOOO",
"XXXXooooooooOOOOO+&&++&&&*&&.XXXXX&++&&&+&&++%   XXXXXXoooooooXX",
"XXXXXXXXXXoooooO+&&&&&***&+&.oXXXXXX&&&+++%%  .XXXXXXXXXXoooXXXX",
"        ......XX+++&****&&++ XoooXX....     ..XXXXXXXXXX..      ",
"     ...........++&***&&&+$ .XoOooXX..  .....XXXXXXXXX......    ",
"   ........XXXXX.++&&&&&+$ .XoOOOoXXX.   .........XX..........  ",
"  ..........XXXXX. +&&+$  XooOOoooXXX. .........XXX............ ",
"    ......XXXX.....     .XoOOOOooXXXX. .....XXXXXXXXXX...XXX....",
"      ...XXX........XXXooooooOOOoXXXX. .......XXXXXXX...........",
"  ..........X....XXXXoooooXooOOooXXXXX...........XXXXXXX....XX..",
" ..........XXXX...XXXXooXXXooOooXXXXXX..........XXXXXXXXX..XX..."
};
