/* XPM */
static char *b9d79025716242dcbc23bf594ac73a2dbusMBsf3ToStHYiF[] = {
/* columns rows colors chars-per-pixel */
"64 64 12 1 ",
"  c #797979",
". c #646464",
"X c #515151",
"o c #3D3D43",
"O c #2F2F37",
"+ c #314040",
"@ c #77E7D1",
"# c #1ED0D6",
"$ c #148F92",
"% c #648A8C",
"& c #D5FFF6",
"* c #617977",
/* pixels */
" ......XXXXXXXXXXXXXXXXXXXoooOooX....XXX....XXXXXXXoooXXXXXXXXX.",
" .......XXXXXXXXoooXXXXXoooooOoo....XXX......XXXXXXXoOooXXXXX...",
"......XXooXXXXooooXXXooOOOOoooooXX........XXXXXXoooOOoooooXXXX..",
"...XXXXoooooXXXooooooooooOOOOOOoX.......XXXXXXXXXoOOOOOooXXXXXXX",
"XXXXXooooOOOOOOOooOOoooooooOOOoooXXX..........XXXXooooXXXXXXXXXX",
"XXXoooOOOooOOOOOOOOoooooooOOoooooXX.........XXXXoooooXXXXXXXXXoo",
"OoooOOOoXXXXXXoooOOOOoooooooooooooXX.......XXXoooOOoOOoXXXXooooO",
"oooooXXXXXXXXXXXX++++OOoooooooooooooX...XXXXXXXoOOOOoooooXXXooOO",
"oX...          .+@@##$XooOooooooooOOOOOOOOoOOOooooooooooOOOOOOoo",
"ooXXXX.    ....X@@@@$$XXooOOooOOOOOOOOOoooooOOOOooooO###OOOOoooo",
"oooX....  ......#@#$$%ooooooOOOOOOOOooXXXXXXXooooo@&&&@#$OooOOoo",
"oXXXX...  ......%$$#%OOooooooOO++++++XXXXXXXXXXX@&&&&@#$$$oOOooo",
"XXXXXXX. ....XXoo%%%ooXXXoooo++#&&@@# ..      ####@@#$$$#..XXXXo",
"ooXXXXXX ..XXXXXooooXXXXoOOO+#@&&@@#$$....     $$##$$##.....Xooo",
"ooooXXXX .XXXooXXXoooooOOOOo#@@@@$$$$%.....   ........X...XXXXoo",
"ooOoooXX.XXXXXXXXooOOoooooooo%#$$$#%%.......  .....XXXXXX..Xoooo",
"OOoooooXXXXXoooOOOOOOOooooooXX%%%%%......... ....XXXXXXXXXXooooo",
"oOOOoXXXXXXXXoooOOOOooooOoooooXX............ ...XXXXXX..XXXXXXoo",
"OOOOOOooooooooOOOoooooOOoooooXXXX....XX..... .....XXXXXXXXXXoooO",
"OOOOOOOOooooOOoooooooooOOOooXXX........XXX.. ..........XXXoOOOOO",
"      .....XX......X.XX#@@#ooXXX........XXX. .#@$*...XXXX.....  ",
"    .....XXX........XX#@@@@#oXXXXX....XXXXXX@@@#$$*...XXXXXX... ",
"  ....XXXXXXXX...XXX#@@@&&&@#ooXXXXXXXXXXX@&&&@@#$%.XXXXXXXXXX..",
" ......XXXXXXXX...X@@@@&&&@@@##XXXXXXXooo@&&&@##$$%XXXooooXXX...",
" ..........XooX##@@&&&@@@@@@##$$#XXXXoooo%@@##$$$$%oOOOOoXXXXXX.",
" .........Xoo%##@@&&@@@@####$$$$$#*XXXXooo%@@$$$$%*OOOOOOOoXXXXX",
"........XXXXXX%%#@@@@#####$$$$$#%%*XXXXXXoo%%##$%*OOOoooooooooXX",
".....XXXooXXoooo%%#@@@##$$$$##%%*XXXXXXXooooo%%**OOOOOooooooXXXX",
"..XXXXXXXooooooooo*%%%%***%%%%* ........XXXXXoooOOOOooooooXXXXXX",
".XXXXXXoo+++ooOOOoooOOOoXX..   ....XXXXXXXXXXXoOOOoooXXXXXXXXXXX",
"XXXXXooo+@@@OOOOOOoooooo....  ....XXXXXXXXooooooooooooXXXXXooooX",
"XXXXoo++@@@##OOoooOOOoooX...  ......XX++XoXXooooooooooooXXXXoooo",
"XXXXX+@&&&#$$#oooooOOOooXX.. .......++@@#......XXooOOOooooooooXX",
"XXXo#@&&&@@#$$ooOOoooooXXXX. .....X+@@@@@#......XXooOOOOoooOOooX",
"XXooO##@@@#$$OOoooooooXXXXX.....X++@@&&&@@@#.XXXXXooooooOOooXXXX",
"XXXXoo$$##$OOOOOoooXXXXXXXXX...+++@&&&&&&@@@#XXooXooOooooooooXXX",
"oooooOOOOOOOoooXXXXX...XXXXX..+@@&&&&&@@@@##$$#oooOOOOoooOOOOooo",
"oooOOOOOOooooXXX......XXXXXX.$##@@&&@@@@##$$$$$#*OOOooooooOOOOOO",
"ooooooooooOOooXXX....XXXXXXX.*$$$##@@##$$$$$##**OooooXXXXXXXXXoo",
"XXooooXXXooOOoooXXXXXXXXXXoo.X**$$###$$$$$##%*OooXXXXXXX....XXXX",
"...XX...XXXXXXXX##&&@XoooooOOoOOO***%%%%%%**ooooXXX......       ",
"..XXXX......XXXX$#@&&#XXooOooooOOOOooOOOOOoooOooXXXXX...     ...",
"....XXXX...XXXXoo$#@#$oXXXoooooooOOOooooXXXXooOoXXXX....   .....",
"......XXXXXXXXXoOO#$$XXXXXXXoooooooooooXXXXXXXO++++XXX..  ......",
".XXXXXXXXXXXXXXoooX.      .   ....XXoooXXooXXo++##$$XXX.  ......",
"..XXXXXXXXXXXXooXXX     ...........XXXooXXoo++#@@@##$XX. .......",
".....XXXXXXooooXXX.  ...............Xooooo++#@@@@@@@#$XX .......",
".......XooOOOooooX. ..............XXXX+++++#@@@@@@@##$$$ .......",
"....XXXXXXoOOOOOOo .............XXXX#@@&&@@@@@@@@@##$$$$$#*..XXX",
"..XXXXXXXoooOOOOoX ............XXX##@@&&&&&@@@@@@#$$$$$$#*.XXX..",
"XXXXXXXXoooOOOoooo.XX...........##@@&&&&&&@@@@@#$$$$##$#*...XXXX",
"XXXXXXoooooooO+++++X..XXX........##@@&&@@@@@##$$$$$##%**XXX...XX",
"OOooOOOOOOoo++@&&&&@XXXX.......XXX*#@@@@@@###$$$$##%*oooooooooOO",
"ooooooOOOOO*#@&&&&@@@$......XXXXXoo**#@@###$$$$$#%*OOOOOooooOOOO",
"XXXXoooooooo*###@@@@#$$$XXXXXXXXXXXXo*#$$$$$$$#%%XXoooOOOOooooXX",
"XXXXXXXXXXooo**##$$#$$$%XXXoooXXXXXooo**#$$##%%XXXXXXXXoOOOoXXXX",
"        ......X*%%%%%%%OooOOOOoooXX.... *%%%%.XXXXXXXXXX..      ",
"     ...........XXXXXXXooOOOOOOOooXX..  .....XXXXXXXXX......    ",
"   ........XXXXXX...XXXXooooOOOOOoXXX.   .........XX..........  ",
"  ..........XXXXXXXXXXXXooOOOOOoooXXX. .........XXX............ ",
"    ......XXXX....XXXXoooooOOOOooXXXX. .....XXXXXXXXXX...XXX....",
"      ...XXX........XXXooooooOOOoXXXX. .......XXXXXXX...........",
"  ..........X....XXXXoooooXooOOooXXXXX...........XXXXXXX....XX..",
" ..........XXXX...XXXXooXXXooOooXXXXXX..........XXXXXXXXX..XX..."
};
