/* XPM */
static char *_5ddbcc94849459e84d6cf59c926a13beDbMGLCsvne7Wy7p[] = {
/* columns rows colors chars-per-pixel */
"64 64 9 1 ",
"  c #797979",
". c #646464",
"X c #515151",
"o c #3D3D43",
"O c #2F2F37",
"+ c #9C7020",
"@ c #EB9D0E",
"# c #FCEE4B",
"$ c #FFFFB5",
/* pixels */
" ......XXXXXXXXXXXXXXXXXXXoooOooX....XXX....XXXXXXXoooXXXXXXXXX.",
" .......XXXXXXXXoooXXXXXoooooOoo....XXX......XXXXXXXoOooXXXXX...",
"......XXooXXXXooooXXXooOOOOoooooXX........XXXXXXoooOOoooooXXXX..",
"...XXXXoooooXXXooooooooooOOOOOOoX.......XXXXXXXXXoOOOOOooXXXXXXX",
"XXXXXooooOOOOOOOo+@OoooooooOOOoooXXX..........XXXXooooXXXXXXXXXX",
"XXXoooOOOooOOOOO+@#@ooooooOOoooooXX.........XXXXoooooXXXXXXXXXoo",
"OoooOOOoXXXXXXo+@##@ oooooooooooooXX.......XXXoooOOoOOoXXXXooooO",
"oooooXXXXXXXXXX++@+ .OOoooooooooooooX...XXXXXXXoOOOOoooooXXXooOO",
"oX...          .++ .XXXooOooO++oooOOOOOOOOoOOOoooooooOOOOOOOOOoo",
"ooXXXX.    ........XXXXXooOO++++OOOOOOOoooooOOOOoooOOO++++OOoooo",
"oooX....  .......XXXoooooOO+@@@++OOOooXXXXXXXoooooOO+++++++oOOoo",
"oXXXX...  ......XXoooOOoOO++@@@@+ooXXXXXXXXXXXXXoO+++@@@++++Oooo",
"XXXXXXX. ....XXooooXooXoO++@@@@@++..  ..        O++@#@@@@@++XXXo",
"ooXXXXXX ..XXXXXooooXXoOO+@@@#@@@+XXX.....     .+@@###@#@@@+Xooo",
"ooooXXXX .XXXooXXXooooOO+@@@@##@@@+XXX.....   ..@@#######@@+XXoo",
"ooOoooXX.XXXXXXXXooOOOOo+@@@###@@@++........  ..@########@+Xoooo",
"OOoooooXXXXXoooOOOOOOOo+@@@@###@@@@++....... ...@#######@@+ooooo",
"oOOOoXXXXXXXXoooOOOOoo+@@@@##$$#@@@++....... ...@####@#@@+XXXXoo",
"OOOOOOooooooooOOOOOo+@@@@@@#$$$$@@@@++X..... ....@##@@@@+XXXoooO",
"OOOOOOOOooooOOoOOo+@@@##@@#$$$$#@#@@++.XXX.. .....@@@@+XXXoOOOOO",
"      .....XX....+@@#####@##$$####@@++..XXX. ...XX...XXXX.....  ",
"    .....XXX....++@######@###$####@@++XXXXXX .XXX.....XXXXXX... ",
"  ....XXXXXXXX..+@@@#############@@@+ XXXXXX.XXX....XXXXXXXXXX..",
" ......XXXXXXXX. +@@###########@#@@++.ooooXX.XXXXXXXXXooooXXX...",
" ..........XooXXX @@@#####@####@@@++ oooooooooooooooOOOOoXXXXXX.",
" .........XoooooXX @@####@@###@@@++ .XXooooOOOooooOOOOOOOOoXXXXX",
"........XXXXXXooooO @@###@@@#@@@++ .XXXXXoooOOOOOOOOOoooooooooXX",
".....XXXooXXoooooooO @##@@@@@@@+  .XXXXXooooooOOOOOOOOooooooXXXX",
"..XXXXXXXoooooooooooo@@#@@@@@+  ........XXXXXoooOOOOooo@#@+XXXXX",
".XXXXXXoooooooOOOoooO @@@@@@+  ....XXXXXXXXXXXoOOOooo+###@@+XXXX",
"XXXXXooooOooOOOOOOoooo+@@@@+  ....XXXXXXXXoooooooooo+@@#@+ .oooX",
"XXXXooooooOOOOOoooOOOo +@@@+  ......XXXXXoXXoooooooo.+@@+ .Xoooo",
"XXXXXXoooXXX+++ooooOOOo++@+  .........XXX......XXoooo.   .ooooXX",
"XXXooOOXXX+++@@+OOooooo +++  .....XXXXXX........XXoooooooooOOooX",
"XXooOOoXX++@@@##@oooooXX++ . ...XXXXXXXX.....XXXXXooooooooooXXXX",
"XXXXoooo++@#@####@oXXXXX + X...XX...XXXX...XXXXooXooOooooooooXXX",
"oooooOO++@######@@XX...XX XX..XX...XXoooX...XoooooOOOOoooOOOOooo",
"oooOOOO++@@###@@@ ....XXXXXX..XXXXXXooooooXXXXoooOOOooooooOOOOOO",
"oooooooo++@@@##@ ....XXXXXXX.XXXXXXXXXoOOOOOoooOOooooXXXXXXXXXoo",
"XXooooXX +++@@  XXXXXXXXXXoo.XXooXXXXoooOOOOOoOooXXXXXXX....XXXX",
"...XX....     .XooooXXoooooOOoOOOooooooOOO+++++oXXX......       ",
"..XXXX......XXXXooooooXXooOooooOOOOooOOO++++++++++XXX...     ...",
"....XXXX...XXXXooOOooooXXXoooooooOOOooo+++++@@@@++++....   .....",
"......XXXXXXXXXoOOooXXXXXXXXoooooooooo++++@@@@@@@#@+++..  ......",
".XXXXXXXXXXXXXXoooX.      .   ....XXo+++@@@@@#@###$$$#@+  ......",
"..XXXXXXXXXXXXooXXX     ...........X++@@@##@@###$$$$$$#@@+......",
".....XXXXXXooooooX.  ...............+@@@###@###$$$$$###@#@+.....",
".......XooOOOoOOOOo .......Xoo....XX+@@########$$$######@@ .....",
"....XXXXXooOOO++++OOX.....Xo++o.XXXX.@@#########$###@##@  ...XXX",
"..XXXXXoooOO++++++++oX....o+@#+XXXXXX @#@##########@@@  ...XXX..",
"XXXXXXoOOO+++@@@@@+++oX...+@## ..XXXX. @@@##@@####@@  XXX...XXXX",
"XXXXoOOO++@@@@@@@##@++XXX..+@ ....XXXoX.@@@@#@@#@@  ooXXXXX...XX",
"OOoOOOO++@@@@#@#$$$#@@+X...  ..XXXXooooX +@@@@@@   OooooooooooOO",
"ooooooO+@@@##@#$$$$$#@@+....XXXXXoooooOO ++@@@+  oOOOOOOooooOOOO",
"XXXXoooo+@###$$$$$#####@XXXXXXXXXXXXoOooX ++++  XXXoooOOOOooooXX",
"XXXXXXXXX+@###$$######@ XXXoooXXXXXoooXX.  ++ XXXXXXXXXoOOOoXXXX",
"        ...@######@##@ OooOOOOoooXX....      .XXXXXXXXXX.++     ",
"     .......@@###@@@@ .ooOOOOOOOooXX..  .....XXXXXXXXX..++@+    ",
"   ........X. @@##@@ .XXooooOOOOOoXXX.   .........XX...++@#@..  ",
"  ..........X. @@@  .XXXooOOOOOoooXXX. .........XXX....+@#@ ... ",
"    ......XXXX.   .XXXoooooOOOOooXXXX. .....XXXXXXXXXX. +#  ....",
"      ...XXX........XXXooooooOOOoXXXX. .......XXXXXXX... + .....",
"  ..........X....XXXXoooooXooOOooXXXXX...........XXXXXXX. ..XX..",
" ..........XXXX...XXXXooXXXooOooXXXXXX..........XXXXXXXXX..XX..."
};
