/* XPM */
static char *_2bc46e419984dd8d1b71597b2e8cdf2TMad7yYisvEFA1Zy[] = {
/* columns rows colors chars-per-pixel */
"64 64 12 1 ",
"  c #797979",
". c #646464",
"X c #515151",
"o c #3D3D43",
"O c #2F2F37",
"+ c #1C9829",
"@ c #17C544",
"# c #41F384",
"$ c #17DD62",
"% c #D9FFEB",
"& c #007B18",
"* c #375B3E",
/* pixels */
" ......XXXXXXXXXXXXXXXXXXXoooOooX....XXX....XXXXXXXoooXXXXXXXXX.",
" .......XXXXXXXXoooXXXXXoooooOoo....XXX......XXXXXXXoOooXXXXX...",
"......XXooXXXXooooXXXooOOOOoooooXX........XXXXXXoooOOoooooXXXX..",
"...XXXXoooooXXXooooooooooOOOOOOoX.......XXXXXXXXXoOOOOOooXXXXXXX",
"XXXXXooooOOOOOOOooOOoooooooOOOoooXXX..........XXXXooooXXXXXXXXXX",
"XXXoooOOOOOOOOOOOOOoooooooOOoooooXX.........XXXXoooooXXXXXXXXXoo",
"OoooOOOoooOOOOOOOOOOOoooooooooooooXX.......XXXoooOOoOOoXXXXooooO",
"oooooXXXOOOOOOooXXoooOOoooooooooooooX...OOOOOXXoOOOOoooooXXXooOO",
"oX...    OOO++ .....XXXooOooooooooOOOOOOOOO@OOooooooooooOOOOOOoo",
"ooXXXX. Oo##@++XXXXXXXXXooOOooOOOOOOOOOOOO@$@@OOooooOOOOOOOOoooo",
"oooX...oo#%%$@+&.XXXooooooooOOOOOOOOoooOO$#$$++oooooooOOOOooOOoo",
"oXXXX..o#%%$@+&+XXoooOOooooooOOOoooXXXXXO#%#$@++XXoooOOOoooOOooo",
"XXXXXXX.@$+&&&&+oooXooXXXoooooXXXX..  ..@@$%@+&+ .XXXXXX...XXXXo",
"ooXXXXXX @@+&&+ ooooXXXXoOOOOooXXXXXX... +&@&&+  ...XX......Xooo",
"ooooXXXX  +@@+ .XXoooooOOOOooooooXXXXX..  +&&+  ......X...XXXXoo",
"ooOoooXX.  +  .XXooOOoooooooooooXXXX.....  ++  ....XXXXXX..Xoooo",
"OOoooooXXXX  .oOOOOOOOooooooXX.............   ...XXXXXXXXXXooooo",
"oOOOoXXXXXXXXoooOOOOoooOOoooooXX............  ..XXXXXX..XXXXXXoo",
"OOOOOOooooooooOOOoooOOOOoooooXXXX....XX..... .....XXXXXXXXXXoooO",
"OOOOOOOOooooOOoooooooOO****oXXX........XXX.. ..........XXXoOOOOO",
"      .....XX.XooooOO*@@++&&oXXX........XXX. ...XX...XXXX.....  ",
"    .....XXX...XooOO@@#@@+++&+XXXX....XXXXXX .XXX.....XXXXXX... ",
"  ....XXXXXXXX..oOO@@####@+@+&+*XXXXXXXXXXXX.XXX....XXXXXXXXXX..",
" ......XXXXXXXX.O*@#######@#@&&+*XXXXXooooXX.XXXXXXXXXooooXXX...",
" ..........XooXoO@####%%###@++&+*XXXXoooooooooooooooOOOOoXXXXXX.",
" .........XooooO*#@#%%#%%##++&&&**XXXXXooooOOOooooOOOOOOOOoXXXXX",
"........XXXXXXoO@@###%%%##@@+&&+**oXXXXXXoooOOOOOOOOOoooooooooXX",
".....XXXooXXooo*@###%%%##@@+&&&@*XXXXXXXooooooOOOOOOOOooooooXXXX",
"..XXXXXXXoooooo*@#%%#%##@#+++&@@*.......XXXXXoooOOOOOOO@@oXXXXXX",
".XXXXXXoooooooO*+@####@@+++&&+@*...XXXXXXXXXXXoOOOooOO#%@@XXXXXX",
"XXXXXooooOooOOO*@+@@#@@++&&&+@ ...XXXXXXXXoooooooooOO#%%%$@ooooX",
"XXXXooOOOOOOOOOo@++@@++&&&&+  ......XXXXXoXXoooooooO@%#%$@+Xoooo",
"XXXXXOO@OOOOOoooo++++&&&+@   .........XXX......XXooO*&@$&&&+ oXX",
"XXXooO%#@@OOOOooO@+&&+&@@  . .....XXXXXX........XXooO+&&&&+ .ooX",
"XXooO%%%$@+OOOOooo@@++@@ .X.....XXXXXXXX.....XXXXXooo +&++  .XXX",
"XXXo##%$@@+&OOOOooo@@@  .XXX...XX...XXXX...XXXXooXooO. +&  .oXXX",
"ooooo@$@+&&+ ooXXXX   .XXXXX..XX...XXoooX...XoooooOOOO.  ..OOooo",
"oooOO+&&&&+ .XXX......XXXXXX..XXXXXXooooooXXXXoooOOOooooooOOOOOO",
"ooooo.+&&+ .ooXXX....XXXXXXX.XXXXXooooOOOOOOoooOOooooXXXXXXXXXoo",
"XXoooo.++  OOoooXXXXXXXXXXoo.XXooXXooooOOOOOOOOooXXXXXXX....XXXX",
"...XX..   .XXXXXooooXXoooooOOoOOOoooOOO***OOOoooXXX......       ",
"..XXXX......XXXXooooooXXooOooooOOOOOOO*@@@+@OOooXXXXX...     ...",
"....XXXX...XXXXooOOooooXXXoooooooOOO*@#@#@@++*OoXXXX....   .....",
"......XXXXXXXXXoOOooXXXXXXXXooooooo*@@@#####++***XXXXX..  ......",
".XXXXXXXXXXXXXXoooX.      .   ....X@@##%###@+&&+**XXXXX.  ......",
"..XXXXXXXXXXXXooXXX     ..........#@#@%%%%##@+&&++*XXXX. .......",
".....XXXXXXooooXXX.  ............#@####%%####@@&&++XXXXX .......",
".......XooOOOooooX. ............##@@@#%#@@#@@@+++&&+XXXX .......",
"....XXXXXXoOOOOOOo .............#@@++@###@@@++&&&&++XXXX.....XXX",
"..XXXXXXXoooOOOOoX ............XX#+&++@@@@@+@++&&+@ XXXX...XXX..",
"XXXXXXXXoooOOOoooo.XX............X@@&&++@++@+&&++@ oXXXXX...XXXX",
"XXXXXXoooooooOOoooOOooXXX.........*@@&&&+&&&&&++  ooooXXXXX...XX",
"OOooOOOOOOooooooOOO@@ooX.......XXXX**@@+&++&@+  OOOOooooooooooOO",
"ooooooOOOOOOOOoOOO%$@@o.....XXXXXooo**@@@+@@+  oooOOOOOOooooOOOO",
"XXXXooooooooOOOOO%%%$$@oXXXXXXXXXXXXoOoo+@@+  XXXXXoooOOOOooooXX",
"XXXXXXXXXXoooooOO#%$%@+&XXXoooXXXXXoooXXX++  XXXXXXXXXXoOOOoXXXX",
"        ......XX@+$$@+&+ooOOOOoooXX....    ...XXXXXXXXXX..      ",
"     ...........X@&+&&+ oOOOOOOOooXX..  .....XXXXXXXXX......    ",
"   ........XXXXXX.+&&+ XooooOOOOOoXXX.   .........XX..........  ",
"  ..........XXXXXX +  .XooOOOOOoooXXX. .........XXX............ ",
"    ......XXXX....X  .oooooOOOOooXXXX. .....XXXXXXXXXX...XXX....",
"      ...XXX........XXXooooooOOOoXXXX. .......XXXXXXX...........",
"  ..........X....XXXXoooooXooOOooXXXXX...........XXXXXXX....XX..",
" ..........XXXX...XXXXooXXXooOooXXXXXX..........XXXXXXXXX..XX..."
};
