/* XPM */
static char *_21f8bbae4da4579bb377cc6dbccf9deCXW8q0zimFfhCaAV[] = {
/* columns rows colors chars-per-pixel */
"64 64 10 1 ",
"  c #797979",
". c #646464",
"X c #515151",
"o c #3D3D43",
"O c #2F2F37",
"+ c #77674F",
"@ c #887455",
"# c #AF8E77",
"$ c #D8AF93",
"% c #E2C0AA",
/* pixels */
" ......XXXXXXXXXXXXXXXXXXXoooOooX....XXX....XXXXXXXoooXXXXXXXXX.",
" .......XXXXXXXXoooXXXXXoooooOoo....XXX......XXXXXXXoOooXXXXX...",
"......XXooXXXXooooXXXooOOOOoooooXX........XXXXXXoooOOoooooXXXX..",
"...XXXXoooooXXXooooooooooOOOOOOoX.......XXXXXXXXXoOOOOOooXXXXXXX",
"XXXXXooooOOOOOOOooOOoooooooOOOoooXXX..........XX++@+++++XXXXXXXX",
"XXXoooOOOooOOOOOOOOoooooooOOoooooXX.........XX+++@@@+@@ XXXXXXoo",
"OoooOOOoXXXXXXoooOOOOoooooooooooooXX......+++@@##@@#@@ XXXXooooO",
"oooooXXXXXXXXXXXXXoooOOoooooooooooooX...XX +@@@@###@  oooXXXooOO",
"oX...          .@@@@XXXooOooooooooOOOOOOOOo +@####   oooOOOOOOoo",
"ooXXXX.    .@@@@@##@@XXXooOOooOOOOOOOOOooooo  @#   oOOOOOOOOoooo",
"oooX....  @@###@##@  oooooooOOOOOOOOooXXXXXXX    oooooOOOOooOOoo",
"oXXXX...@@@##$$#@@ ooOOooooooOOOoooXXXXXXXXXXXXXXXoooOOOoooOOooo",
"XXXX@@@@####$#$$  oXooXXXoooooXXXX..  ..        ..XXXXXX...XXXXo",
"ooXXX@@#@@$$$$  ooooXXXXoOOOOooXXXXXX.....     .....XX......Xooo",
"ooooX @@@##$$  XXXoooooOOOOooooooXXXXX.....   ........X...XXXXoo",
"ooOooo  @@$  XXXXooOOoooooooooooXXXX........  .....XXXXXX..Xoooo",
"OOoooooX   XoooOOOOOOOooooooXX....@@@@##@@##@@...XXXXXXXXXXooooo",
"oOOOoXXXXXXXXoooOOOOooooOooooo@@@@@@@####$#$$###@XXXXX..XXXXXXoo",
"OOOOOOooooooooOOOoooooOOoo@@@@#@##$##@@#$$$$#@@@..XXXXXXXXXXoooO",
"OOOOOOOOooooOOoooooooooO@@###@@#$$$$##$$%%$#@@ ........XXXoOOOOO",
"      .....XX......X.@@@#@@$$$$$%%%%$$$%%$##  ..XX...XX@@#@@..  ",
"    .....XXX......@@@@##@$$$$%%%%%%%%$%$$$#  .XXX.....@@##@X... ",
"  ....XXXXXXXX...@@@##$$$%%%$$%%%%%$%%$$##  .XXX....X@###@XXXX..",
" ......XXXXXXXX... @@###$$$%%%%%%$$%%$#   XX.XXXXXXXXX#@ooXXX...",
" ..........XooXXXX..  @@#$%$%$$%%%$$    ooooooooooooOOOOoXXXXXX.",
" .........XoooooXXXXo.. @#$#$$%$%$   XXooooOOOooooOOOOOOOOoXXXXX",
"........XXXXXXooooOOOOO.           XXXXXXoooOOOOOOOOOoooooooooXX",
".....XXXooXXoooooooOOOOO.         XXXXXXooooooOOOOOOOOooooooXXXX",
"..XXXXXXXooooooooooooOOOX.      ........XXXXXoooOOOOooooooXXXXXX",
".XXXXXXoooooooOOOoooOOOoXX..   ....XXXXXXXXXXXoOOOoooXXXXXXXXXXX",
"XXXXXooooOooOOOOOOoooooo....  ....XXXXXXXXooooooooooooXXXXXooooX",
"XXXXooooooOOOOOoooOOOoooX...  ......XXXXXoXXooooooooooooXXXXoooo",
"XXXXXXoooXXXXooooooOOOooXX.. .......+@@+X......XXooOOOooooooooXX",
"XXXooOOXXXXXXXooOOoooooXXXX. .....XXX++@@@++....XXooOOOOoooOOooX",
"XXooOOoXXXXXoO++@@@oooXXXXX.....XXXXX.++@##@+++@@@##ooooOOooXXXX",
"XXXXooooXXoO+++@@##@XXXXXXXX...XX...XX.+#$$#@+@##$#.OooooooooXXX",
"oooooO++@@#@@@@####$#@.XXXXX..XX...XXoo @@#$$##$$#.OOOoooOOOOooo",
"oooOOO.++@@##@#@#$$%$#####XX..XXXXXXoooo  @#$$$$# OOooooooOOOOOO",
"ooooooo.+++@##$$%%%%%%$$$%%%$XXXXXXXXXoOOO  #$## ooooXXXXXXXXXoo",
"XXooooXX.  +@###$%%%$$$%$$%$.XXooXXXXoooOOOO ## oXXXXXXX....XXXX",
"...XX...XX..    #$%$%%%$   .OoOOOooooooOOOOoo  oXXX......       ",
"..XXXX......X.   #$%%$   .OooooOOOOooOOOOOoooOooXXXXX...     ...",
"....XXXX...XXXXo.      .XXoooooooOOOooooXXXXooOoXXXX....   .....",
"......XXXXXXXXXoOO.   .XXXXXoooooooooooXXXXXXXOoXXXXXX..  ......",
".XXXXXXXXXXXXXXoooX.      .   ....XXoooXXooXXoOOoXXXXXX.  ......",
"..XXXXXXXXXXXXooXXX     ...........XXXooXXoooOOOoXXXXXX. .......",
".....XXXXXXooooXXX.  ...............XoooooOOOO++@@@XXXXX .......",
".......XooOOOooooX. ..............XXXXXooooO+++@@##@XXXX .......",
"....XXXXXXoOOOOOOo ...#@@.......XXXXXXXXo+@@@@#$##@##@@@@@...XXX",
"..XXXXXXXoooOOOOoX .@@##@@.....XXXXXXX++@@#@#$$#$$$###@@@..XXX..",
"XXXXXXXXoooOOOooo@@@###@ ........++@@@@@###$##$$$$%$$$#@X...XXXX",
"XXXXXXoooooooOOoXX@@@#  ..........@++@#$#$$$$$%$%%$$$# XXXX...XX",
"OO+++@@@@OoooooooXX   .........XXXXo++@#$%$$%%%%%$##  ooooooooOO",
"ooo@++@#@@OOOOooooXXX.......XXXXXooooo@@$$%%%%$$$   OOOOooooOOOO",
"XXXX@@#@##@@OOOOOooXXXXXXXXXXXXXXXXXoOoo#$$%$$    .oooOOOOooooXX",
"XXXX  @####@++oOOOOooXXXXXXoooXXXXXoooXXX#$$    .XXXXXXoOOOoXXXX",
"        @@##@@+XXXooooOOooOOOOoooXX....      ..XXXXXXXXX..      ",
"     ..  @@@#  .XXXXXXXooOOOOOOOooXX..  .....XXXXXXXXX......    ",
"   ......    XXXX...XXXXooooOOOOOoXXX.   .........XX..........  ",
"  ..........XXXXXXXXXXXXooOOOOOoooXXX. .........XXX............ ",
"    ......XXXX....XXXXoooooOOOOooXXXX. .....XXXXXXXXXX...XXX....",
"      ...XXX........XXXooooooOOOoXXXX. .......XXXXXXX...........",
"  ..........X....XXXXoooooXooOOooXXXXX...........XXXXXXX....XX..",
" ..........XXXX...XXXXooXXXooOooXXXXXX..........XXXXXXXXX..XX..."
};
