/* XPM */
static char *_e9fa091cfe54009e306df86117e0fb7VaziTOGhCWBTuq76[] = {
/* columns rows colors chars-per-pixel */
"64 64 14 1 ",
"  c #797979",
". c #646464",
"X c #515151",
"o c #3D3D43",
"O c #2F2F37",
"+ c #4D3737",
"@ c #960606",
"# c #3B2C2C",
"$ c #CA0707",
"% c red",
"& c #970303",
"* c #FD5E5E",
"= c #FF8989",
"- c #845959",
/* pixels */
" ......XXXXXXXXXXXXXXXXXXXoooOooX....XXX....XXXXXXXoooXXXXXXXXX.",
" .......XXXXXXXXoooXXXXXoooooOoo....XXX......XXXXXXXoOooXXXXX...",
"......XXooXXXXooooXXXooOOOOoooooXX........XXXXXXoooOOoooooXXXX..",
"...XXXXoooooXXXooooooooooOOOOOOoX.......XXXXXXXXXoOOOOOooXXXXXXX",
"XXXXXooooOOOOOOOooOOoooooooOOOoooXXX..........XXXXooooXXXXXXXXXX",
"XXXoooOOOooOOOOOOOOoooooooOOoooooXX.........XXXXoooooXXXXXXXXXoo",
"OoooOOOoXXXXXXoooOOOOoooooooooooooXX.......XXXoooOOoOOoXXXXooooO",
"oooooXXXXXXXXXXXXXoooOOoooooooooooooX...XXXXXXXoOOOOoooooXXXooOO",
"oX...          .....XXXooOooooooooOOOOOOOOoOOOooooooooooOOOOOOoo",
"ooXXXX.    ....XXXXXXXXXooOOooOOOOOOOOOoooooOOOOooooOOOOOOOOoooo",
"oooX....  .......XXXooooooooOOOOOOOOooXXXXXXXoooooooooOOOOooOOoo",
"oXXXX...  ......XXoooOOooooooOOOoooXXXXXXXXXXXXXXXoooOOOoooOOooo",
"XXXXXXX. ....XXooooXoo+++++++oXXXX..  ..        ..XXXXXX...XXXXo",
"ooXXXXXX ..XXXXXoooo++@@@@@@@##+XXXXX.....     .....XX......Xooo",
"ooooXXXX .XXXooXXX++@@$$@@$@$@@@#+XXXX.....   ........X...XXXXoo",
"ooOoooXX.XXXXXX+++@@@$$@@$$$@$@@@@#++.......  .....XXXXXX..Xoooo",
"OOoooooXXXXX@@@@@$$%%$@$$%$$$%%$$$&&&&&&.... ....XXXXXXXXXXooooo",
"oOOOoXXXXXXXX@@@$$%$%%$$%$$%%*%*$$$&&$&..... ...XXXXXX..XXXXXXoo",
"OOOOOOoooooooo$@@@$@$%%*%%*%***%%$&&$XX..... .....XXXXXXXXXXoooO",
"OOOOOOOOooooOOo$$@@$$$%%**=**=***%$--..XXX.. .....%%%$$XXXoOOOOO",
"      .....XX..-$$$$$%%****==*=*--......XXX. ...@@$%$$%$$$-...  ",
"    .....XXX.....-$%%$**==**==*-XX....XXXXXX .XX-@@$%%%%$-XX... ",
"  ....XXXXXXXX...X--%*%==*==**-XXXXXXXXXXXXX.XXX.-$$$$---XXXXX..",
" ......XXXXXXXX...XX---*===*--XXXXXXXXooooXX.XXXXX----ooooXXX...",
" ..........XooXXXXXoXXo-----ooooXXXXXoooooooooooooooOOOOoXXXXXX.",
" .........XoooooXXXXoOOOOOooooooooXXXXXooooOOOooooOOOOOOOOoXXXXX",
"........XXXXXXooooOOOOOoooOOOooXXooXXXXXXoooOOOOOOOOOoooooooooXX",
".....XXXooXXoooooooOOOOOOooOOOOOoXXXXXXXooooooOOOOOOOOooooooXXXX",
"..XXXXXXXooooooooooooOOOX.      ........XXXXXoooOOOOooooooXXXXXX",
".XXXXXXoooooooOOOoooOOOoXX..   ....XXXXXXXXX+++OOOoooXXXXXXXXXXX",
"XXXXXooooOooOOOOOOoooooo....  ....XXXXXXX+++@@@+++ooooXXXXXooooX",
"XX++++++++##OOOoooOOOoooX...  ......XX+++@@@@@@@@@@@ooooXXXXoooo",
"X+@@@@@@@@$$###ooooOOOooXX.. .......@@@@@@$@@@$%$$$@@$%$$$%$ooXX",
"XXX@@$$$$$$%%$$#OOoooooXXXX. .....XXX@@$$$$$@$@$%%$$$%$%$$$-OooX",
"XXoo$@$%$%****$@#oooooXXXXX.....XXXXXX@@$%%$$$%%%$%%**%*%%-oXXXX",
"XXXX$$%$%***%%@OoooXXXXXXXXX...XX...XXXX%$%%$$$*%%%*%**=*-oooXXX",
"ooooo$$%*%*%--oXXXXX...XXXXX..XX...XXoooX.%$%%*=***%*==*-OOOOooo",
"oooOO@$%%$%-oXXX......XXXXXX..XXXXXXooooooX%****==**==--ooOOOOOO",
"oooooo@$$%-OooXXX....XXXXXXX.XXXXXXXXXoOOOOO%=*==*==--XXXXXXXXoo",
"XXooooX@$-oOOoooXXXXXXXXXXoo.XXooXXXXoooOOOOOo==*=--XXXX....XXXX",
"...XX..--XXXXXXXooooXXoooooOOoOOOooooooOOOOooo----X......       ",
"..XXXX......XXXXooooooXXooOooooOOOOooOOOOOoooOooXXXXX...     ...",
"....XXXX...XXXXooOOooooXXXoooooooOOOooooXXXXooOoXXXX....   .....",
"......XXXXXXXXXoOOooXXXXXXXXoooooooooooXXXXXXXOoXXXXXX..  ......",
".XXXXXXXXXXXXXXoooX.      .   ....XXoooXXooXXoOOoXXXXXX.  ......",
"..XXXXXXXXXXXXooXXX     ...........XXXooXXoooOOOoXXXXXX. .......",
".....XXXXXXooooXXX.  ...............XoooooOOOOOOOoXXXXXX .......",
".......XooOOOoooo#+++++++++++##...XXXXXooooOOOooooooXXXX .......",
"....XXXXXXoOOOO##@@$$$%%%%$$$$@@XXXXXXXXoOOoo@@@@$@XXXXX.....XXX",
"..XXXXXXXoooO##@@$$$%%%$%$%$$@@XXXXXXXooOOoooo@@%$$%XXXX...XXX..",
"XXXXXXXXoooO#@@$$%%$$%$$$%$%$@...XXXXXXoooooOOo@$%%oXXXXX...XXXX",
"XXXXXXooooooo-@@$$$%%*%%$$%%@.....XXXoooooOOOOOo%%ooooXXXXX...XX",
"OOooOOOOOOoooo--@$%%***=*%%$...XXXXoooooOOOOooooOOOOooooooooooOO",
"ooooooOOOOOOOOoo-$*====*=*..XXXXXoooooOOOoooooooooOOOOOOooooOOOO",
"XXXXooooooooOOOOO-%**===-XXXXXXXXXXXoOooXXXXXXXXXXXoooOOOOooooXX",
"XXXXXXXXXXoooooOOO--=*--XXXoooXXXXXoooXXXXXXXXXXXXXXXXXoOOOoXXXX",
"        ......XXXXoo---OooOOOOoooXX....   ....XXXXXXXXXX..      ",
"     ...........XXXXXXXooOOOOOOOooXX..  .....XXXXXXXXX......    ",
"   ........XXXXXX...XXXXooooOOOOOoXXX.   .........XX..........  ",
"  ..........XXXXXXXXXXXXooOOOOOoooXXX. .........XXX............ ",
"    ......XXXX....XXXXoooooOOOOooXXXX. .....XXXXXXXXXX...XXX....",
"      ...XXX........XXXooooooOOOoXXXX. .......XXXXXXX...........",
"  ..........X....XXXXoooooXooOOooXXXXX...........XXXXXXX....XX..",
" ..........XXXX...XXXXooXXXooOooXXXXXX..........XXXXXXXXX..XX..."
};
