/* XPM */
static char *_12c8f5f0fa7459aad27d436b2498023QrXt6wxngURKqBPY[] = {
/* columns rows colors chars-per-pixel */
"64 64 3 1 ",
"  c None",
". c gray24",
"X c #9B9B9B",
/* pixels */
"                                                                ",
"                                                                ",
"                                                                ",
"                                                                ",
"                                                                ",
"              ........                                          ",
"              XXXXXXXX.                                         ",
"                      X.                                        ",
"                       X.             ..                        ",
"                        X.          ..XX                        ",
"                         X.       ..XX                          ",
"                          X.    ..XX                            ",
"                           X. ..XX                              ",
"          ....              X.XX                     .          ",
"          XXXX.             .X                       .          ",
"              X.            .                        .          ",
"               X.          .X          ...           .          ",
"                .          .          .XXX           X.         ",
"                .         .X         .X               ....      ",
"                .         .          .              ..XXXX..    ",
"                X.       .X          .             .XX    XX.   ",
"                 .       .           X.           .X        X.  ",
"                 .      .X            .          .X          X. ",
"                 .      .             X.        .X            X.",
"                 X.    .X.             X.     ..X              X",
"                  .   .X .              .   ..XX                ",
"                  . ..X  X.             . ..XX                  ",
"                ....XX    .             ..XX.                   ",
"               .XXXX      X.           .XX  X.                  ",
"              .X           X.         .X     .                  ",
"             .X             X.       .X      .                  ",
"            .X               X..    .X       X.                 ",
"          ..X                 XX....X         .                 ",
"         .XX                    X.X           .                 ",
"         .                       .            X.                ",
"         .                       X.            .                ",
"         .                        .            X.               ",
"         .       .                .             X.              ",
"         .       X.              .X.             X              ",
"         .        X.             . .                            ",
"         X         X.            . X.                           ",
"                    .           .X  X.                          ",
"                    .           .    X.                         ",
"                    X.          .     X.                        ",
"                     .         .X      X..                      ",
"                     .         .        XX..                    ",
"                     X.........X          XX..                  ",
"                    ..XXXXXXXXX.            XX..                ",
"                   .XX         X.             XX                ",
"     .            .X            X.                              ",
"     X.          .X              X.                             ",
"      X.        .X                X.                            ",
"       X..     .X                  X.                           ",
"        XX..  .X                    .                           ",
"          XX. .                     .                           ",
"            X..                     ............                ",
"             XX.                   .XXXXXXXXXXXX.               ",
"               X..                .X            X.              ",
"                XX.              .X              X..            ",
"                  X              .                XX            ",
"                                 X                              ",
"                                                                ",
"                                                                ",
"                                                                "
};
