/* XPM */
static char *_7cbc929ca8c4d90fc6d3989ff0bac6c2caiRuhULEr7NdJp[] = {
/* columns rows colors chars-per-pixel */
"64 64 3 1 ",
"  c None",
". c gray24",
"X c #9B9B9B",
/* pixels */
"                                                                ",
"                                                                ",
"                                                                ",
"                                                                ",
"                                                                ",
"                                                                ",
"                                                                ",
"                                                                ",
"                                      ..                        ",
"                         .          ..XX                        ",
"                         X.       ..XX                          ",
"                          X.    ..XX                            ",
"                           X. ..XX                              ",
"                            X.XX                                ",
"                            .X                                  ",
"                            .                                   ",
"                           .X                                   ",
"                           .                                    ",
"                          .X         .                ....      ",
"                          .          .              ..XXXX..    ",
"                         .X          .             .XX    XX    ",
"                         .           X.           .X            ",
"                        .X            .          .X             ",
"                 .      .             X.        .X              ",
"                 X.    .X.             X.     ..X               ",
"                  .   .X .              .   ..XX                ",
"                  . ..X  X.             . ..XX                  ",
"                ....XX    .             ..XX                    ",
"               .XXXX      X.           .XX                      ",
"              .X           X.         .X                        ",
"             .X             X.       .X                         ",
"            .X               X..    .X                          ",
"          ..X                 XX....X                           ",
"          XX                    X.X                             ",
"                                 .                              ",
"                                 X.                             ",
"                                  .                             ",
"                                  .                             ",
"                                 .X                             ",
"                                 .                              ",
"                    .            .                              ",
"                    .           .X                              ",
"                    .           .                               ",
"                    X.          .                               ",
"                     .         .X                               ",
"                     .         .                                ",
"                     X.........X                                ",
"                    ..XXXXXXXXX.                                ",
"                   .XX         X.                               ",
"                  .X            X.                              ",
"                 .X              X.                             ",
"                                  X.                            ",
"                                   X.                           ",
"                                    .                           ",
"                                    .                           ",
"                                    X.                          ",
"                                     X                          ",
"                                                                ",
"                                                                ",
"                                                                ",
"                                                                ",
"                                                                ",
"                                                                ",
"                                                                "
};
